<svg id="Camada_1" data-name="Camada 1" xmlns="http://www.w3.org/2000/svg" viewBox="0 0 566.93 566.93"><defs><style>.cls-1{fill:#1f87a3;}</style></defs><path class="cls-1" d="M391.78,380.19c-5.45.17-11.22,3.36-11.4,11.4-.14,5.91,5.36,11.17,11.54,11.18a11.27,11.27,0,0,0,11.26-11.18C403.22,384.74,398.67,380,391.78,380.19Z"/><path class="cls-1" d="M283.38,70.87c-117.33,0-212.48,95-212.51,212.46s95,212.73,212.25,212.73c117.51,0,212.83-94.89,212.94-212A212.52,212.52,0,0,0,283.38,70.87Zm129.4,329.28a26.77,26.77,0,0,1-10.62,11.19c-8.15,4.78-17.31,3.76-24.67-3.09-7.6-7.07-14.91-14.43-22.26-21.74q-17.85-17.75-35.58-35.64c-.38-.38-.79-.73-1.16-1.13-3.8-4.05-8.28-4.85-13.45-3A72.92,72.92,0,0,1,287,350.54,59.34,59.34,0,0,1,247.33,340c-13.07-8.93-23-20.47-27.87-35.78-3.62-11.32-3.8-22.86-1.64-34.47.17-.89,1.52-1.66,2.47-2.24.26-.15,1.19.55,1.64,1,7.35,7.64,14.63,15.36,22,23a37,37,0,0,0,15.51,9.76c6.82,2.15,13.68,2.22,20.27-.6,11.95-5.14,20.06-13.85,22.72-26.84,1.75-8.51-.72-16.29-5.61-23.28a59.66,59.66,0,0,0-6.26-7.39c-7.15-7.26-14.4-14.41-21.6-21.62-.5-.48-.91-1-1.51-1.75A67.06,67.06,0,0,1,282.67,217c30.73-2.46,62,22.86,67.1,54.59a69.27,69.27,0,0,1-2.58,32.65c-.18.57-.35,1.15-.58,1.7-2,4.63-.75,8.43,2.77,11.86q16.38,15.93,32.6,32,12.34,12.19,24.63,24.45a29.79,29.79,0,0,1,6.7,9.47A18.7,18.7,0,0,1,412.78,400.15Zm9.8-86.33a118.07,118.07,0,0,1-12.76,0c-9.35-.48-17,2.65-22.9,10a3.23,3.23,0,0,1-.45.38c-7-5.21-13.59-10.67-15.28-20-.91-5.07-.3-10,.27-15a79.37,79.37,0,0,0-12.2-52.71c-12.61-19.9-30.12-33.73-53.17-39.27-35.47-8.57-78,3.8-99.07,40.53-15.9,27.78-17.6,56.87-3.09,85.69,13.77,27.33,36.59,43.07,66.86,47.81,10,1.57,20.08.74,30-1.1a13.69,13.69,0,0,1,12,3.49q6.39,5.65,12.77,11.34a8.27,8.27,0,0,1,.55.63c-1,.64-1.87,1.18-2.75,1.75-5.53,3.62-9,8.68-9.74,15.24a113.53,113.53,0,0,0-.26,13.81c.07,4.77-.08,9.5-1.72,14-1.54,4.25-4.06,7.86-8.14,9.91-9.6,4.84-19.68,6.67-30.33,4.21-8.45-2-14.28-6.74-17.28-15.1-2.32-6.47-3.89-12.89-3-19.84a24.72,24.72,0,0,0-1.73-13.46c-5.53-12.29-22.1-15.53-32.09-6.2-4,3.73-7.8,7.64-11.73,11.4-4.21,4.05-9.05,6.87-15,7.57A17.38,17.38,0,0,1,179.89,406a78.3,78.3,0,0,1-19.56-19.42c-4.63-6.7-3.7-13.85-.43-20.91,1.81-3.88,4.87-6.79,7.85-9.74s6.11-5.78,8.92-8.87c7.16-7.86,7.29-18.74.47-26.89a18.2,18.2,0,0,0-12.73-6.66c-5.48-.5-11-.55-16.51-.94a54.88,54.88,0,0,1-9.6-1.17c-8.54-2.19-13.76-7.83-15.4-16.47a65.47,65.47,0,0,1-.26-22.21c1.9-12.32,10.43-19.43,23-19.8,5.07-.15,10.2.07,15.29-.12a34.46,34.46,0,0,0,7.42-1.17c12.51-3.32,19.5-20.94,8.75-32.43-4.09-4.37-8.37-8.57-12.57-12.86a23.42,23.42,0,0,1-6.46-12.55,21.28,21.28,0,0,1,2.88-14.52,54.32,54.32,0,0,1,18-18.55c8.61-5.57,19.08-4.44,27.23,2.76,4.32,3.8,8.33,8,12.48,11.93a21.75,21.75,0,0,0,12,6.12c11.51,1.76,22.52-7.36,22.8-19,.14-6,0-12,.4-18,.56-9.21,4.53-16.43,13.12-20.58,3.75-1.8,7.85-2.07,11.92-2.38.89-.07,1.77-.21,2.65-.32l5.06,0c2.61.26,5.23.5,7.84.81,12.08,1.42,19,11.87,19.27,22.09.14,6.23,0,12.48.34,18.69a20.53,20.53,0,0,0,21.66,19.3c.48,0,1-.07,1.42-.13a18.81,18.81,0,0,0,10.77-5.36c3.94-3.8,7.69-7.74,11.58-11.56s8.57-6.71,14.27-7.33a22.05,22.05,0,0,1,13.15,2.84,53.88,53.88,0,0,1,19,17.74c5.35,8,5,17.44-.72,25.24a72.55,72.55,0,0,1-5.63,6.28c-3,3.23-6.28,6.29-9.12,9.68-4.43,5.29-6.76,11.32-5,18.37,2.42,9.65,9.95,15.43,20.27,15.59,5,.08,10.07-.08,15.1.08,9.9.33,18,4,22,13.6A33.49,33.49,0,0,1,445,278.59a85.34,85.34,0,0,1-.69,16.29C442.63,305.82,434,313.16,422.58,313.82Z"/></svg>