<svg id="Camada_1" data-name="Camada 1" xmlns="http://www.w3.org/2000/svg" viewBox="0 0 566.93 566.93"><defs><style>.cls-1{fill:#1f87a3;}</style></defs><path class="cls-1" d="M292.54,156.64c3,0,5.94,0,8.91,0h10.21c1.59,0,3.2,0,4.8,0a3.78,3.78,0,0,0,.65,0,4.49,4.49,0,0,0,0-.7c-.25-6.18-6.21-11.74-12.54-11.74h-.15c-6.29.08-12.18,5.71-12.36,11.81a5.28,5.28,0,0,0,0,.63A2.76,2.76,0,0,0,292.54,156.64Z"/><path class="cls-1" d="M256.22,268q16.53,0,33.07,0h26.57q17.08,0,34.15,0a21.09,21.09,0,0,0,2.22-.1,18,18,0,0,0-.13-2.23c-1.05-10.63-2.05-21.28-3.06-31.92l-2.31-24.45q-1.58-16.83-3.19-33.65a10.64,10.64,0,0,0-.24-1.61,11.89,11.89,0,0,0-1.69-.09q-8.52,0-17,0H304.43c-12.91,0-26.25,0-39.38-.05a6,6,0,0,0-1.57.18,8.49,8.49,0,0,0-.13,1.07c-.09,2.36-.38,4.69-.66,6.93-.15,1.27-.31,2.53-.43,3.8q-1.51,15.93-3,31.88-2.28,24.28-4.59,48.57h0c-.06.68-.1,1.22-.12,1.63C254.93,268,255.47,268,256.22,268Z"/><path class="cls-1" d="M283.38,70.87c-117.33,0-212.48,95-212.51,212.46s95,212.73,212.25,212.73c117.51,0,212.83-94.89,212.94-212A212.52,212.52,0,0,0,283.38,70.87ZM236.63,274.45l1.23-13.24q1.57-17,3.18-33.92,1.91-20,3.85-39.91l2-20.43c.69-7.1,4-10.17,11.13-10.27,4.64-.06,10.13-.11,15.69,0a3.7,3.7,0,0,0,.94-.06,4.29,4.29,0,0,0,.22-1.14c1.4-14.7,10.05-24.81,23.74-27.72a29.28,29.28,0,0,1,34.29,20.12,40.7,40.7,0,0,1,1.41,6.69c.09.62.2,1.46.31,2,.58,0,1.39,0,1.86.05h4.86c2.88,0,5.85,0,8.8.07,5.81.17,8.92,3,9.49,8.78q2.36,23.79,4.63,47.6l1.39,14.38q2.14,22.1,4.27,44.18l.09.87a25.48,25.48,0,0,1,.21,3.11c-.06,6-3.24,9.33-9.19,9.62-1.55.08-3.1.09-4.62.09h-107c-1.24,0-2.51,0-3.83-.11h0a9.18,9.18,0,0,1-8.93-10.78Zm160.43,54.06c-9.16,9.88-18.53,19.85-27.59,29.5q-5.79,6.17-11.57,12.34l-.28.29-.11.11-1.57,1.8c-6.63,7.65-7.48,8.36-16.67,8.26-1.44,0-3.16,0-5.22,0-4.46,0-9,0-13.35,0H306.9c-6.76,0-13.76,0-20.64,0h-.08a5.45,5.45,0,0,0-4.28,1.81l-1.31,1.34c-5.1,5.18-10.37,10.55-16,15.43-.83.73-.93,1-.93,1.05a1.51,1.51,0,0,0,.23.61c1.59,3,1.17,6.49-1.15,9.51-.12.15-.23.31-.35.47a12.63,12.63,0,0,1-1.37,1.67l-6.06,6.11c-5.6,5.65-11.38,11.49-17.21,17.11-2.72,2.63-5.26,3.94-7.81,3.94s-5.33-1.44-8.24-4.34q-27.31-27.28-54.6-54.6c-5.41-5.42-5.44-10-.09-15.41q5.52-5.57,11.08-11.1,6.06-6,12.1-12.12c3.85-3.88,7.94-4.84,12.15-2.83l.43-.45.51-.53,8.11-8.06c8-8,16.36-16.24,24.36-24.52a18.72,18.72,0,0,1,14.48-6.11h.19c20.59.13,41.52.11,61.77.1q11.37,0,22.73,0c8.1,0,10.22.85,12.4,7,1-.86,1.95-1.7,2.88-2.59q1.95-1.86,3.85-3.77c2.63-2.61,5.36-5.3,8.31-7.78,10.61-8.88,25.22-8.13,34.74,1.78C406.22,304,406.22,318.63,397.06,328.51Z"/><path class="cls-1" d="M198.27,359c-.16-.16-.29-.28-.4-.37l-.27.27c-4.29,4.61-8.74,9.26-13.61,14.21q15.64,15.57,31.25,31.19l15.08,15.08,0,0,.17-.17.21-.23c1.49-1.55,3-3.1,4.43-4.66,2.89-3.05,5.88-6.2,8.92-9.24l.15-.15a3.58,3.58,0,0,0-.28-.3C228.47,389.3,213.1,373.94,198.27,359Z"/><path class="cls-1" d="M379.9,303.48a7.05,7.05,0,0,0-5.27,1.93c-11.58,10.57-20.88,19.36-29.27,27.67-3.73,3.69-7.56,5.34-12.4,5.34h-.16c-10.42-.08-21-.07-31.26-.06H287.08a29.94,29.94,0,0,1-4.46-.25c-4.66-.7-7.5-3.64-7.6-7.87s2.58-7.64,7-8.73a20.94,20.94,0,0,1,5.05-.43h.35l20,0q10.89,0,21.78,0l.87,0c.26,0,.61,0,.88,0a6.27,6.27,0,0,0,0-3.95l-.77,0-1.06,0c-9.95,0-19.91,0-29.86,0H280c-9.31,0-18.95,0-28.43,0l-4.94,2c-6.6,6.68-13.35,13.43-19.88,19.95l-10.33,10.33a13.32,13.32,0,0,0-1.6,1.81,13,13,0,0,0,1.71,1.94q6.39,6.44,12.81,12.84c7.09,7.09,14.42,14.42,21.58,21.69a6.17,6.17,0,0,0,.66.59,6.53,6.53,0,0,0,.55-.51c2.59-2.68,5.27-5.32,7.86-7.88,3.43-3.39,7-6.89,10.29-10.44a18.16,18.16,0,0,1,14.19-6.06h.28c12.33.13,24.86.11,37,.09l16,0h0c2.31,0,3.2-.22,3.93-1q5.19-5.52,10.42-11,3.92-4.11,7.8-8.23c2.58-2.73,5.13-5.47,7.69-8.21,5.42-5.8,11-11.81,16.71-17.59h0c2.84-2.9,4.39-7.38,1.42-10.87A8.46,8.46,0,0,0,379.9,303.48Z"/></svg>