<svg id="Camada_1" data-name="Camada 1" xmlns="http://www.w3.org/2000/svg" viewBox="0 0 566.93 566.93"><defs><style>.cls-1{fill:#1f87a3;}</style></defs><path class="cls-1" d="M339.67,323.78c-5-25.73-27.34-42.45-53.42-39.94-19,1.83-35.9,15.94-41.39,34.31-3,9.91-1.78,20-2.13,30.28h97.59c0-6.29.05-12.42,0-18.56A33.73,33.73,0,0,0,339.67,323.78Z"/><path class="cls-1" d="M283.38,70.87c-117.33,0-212.48,95-212.51,212.46s95,212.73,212.25,212.73c117.51,0,212.83-94.89,212.94-212A212.52,212.52,0,0,0,283.38,70.87Zm106,309.38c0,10.31-7,17.26-17.31,17.26H211c-10.11,0-17-6.89-17-17,0-5.15,0-10.28,0-15.63,5.58,0,10.94,0,16.29,0a8,8,0,0,0,8-8.31,7.84,7.84,0,0,0-8-7.82c-8-.06-16,0-24,0-4.22,0-7.47-2.46-8.37-6.15a8.2,8.2,0,0,1,8-10.26c2.59-.06,5.19,0,8,0V234.63c5.17,0,10.1.09,15,0a13.3,13.3,0,0,0,5.09-1.07,7.76,7.76,0,0,0,4.1-8.72,7.65,7.65,0,0,0-7.08-6.27c-7.48-.2-15-.12-22.46-.17a36,36,0,0,1-3.6-.09,8.06,8.06,0,0,1-7.41-8.31,8.19,8.19,0,0,1,8.1-7.92c2.66,0,5.33,0,8.26,0,0-4.19,0-8.19,0-12.19a43.32,43.32,0,0,1,.43-7.58,16,16,0,0,1,15.77-12.83c5.16,0,10.32,0,15.48,0H372.08c10.36,0,17.29,7,17.29,17.27Z"/><path class="cls-1" d="M291.19,275.33c18,.11,32.86-14.38,33-32,.09-18.13-14.31-33-32.12-33.09a32.62,32.62,0,0,0-32.94,32.29v.18A32.63,32.63,0,0,0,291.19,275.33Z"/></svg>