<svg id="Camada_1" data-name="Camada 1" xmlns="http://www.w3.org/2000/svg" viewBox="0 0 566.93 566.93"><defs><style>.cls-1{fill:#1f87a3;}</style></defs><path class="cls-1" d="M224.15,215.21a59.65,59.65,0,0,0-60.24,59v.46c-.18,32.77,26.66,60,59.3,60,33.46,0,60.34-27.43,59.89-59.56C283.75,242.88,257.05,215.49,224.15,215.21Zm-36.49,98c3.65-.92,10.4-2.51,10.4-2.51,3.5-.62,11.26-4.54,14.45-10.22a2.81,2.81,0,0,0-.59-3.93,43.42,43.42,0,0,1-12.71-25.88,56,56,0,0,1,1.07-20.51c1.75-7.47,6.21-12.51,13.21-15.06,9.29-3.37,18.38-2.91,26.87,2.73,5,3.32,7.28,8.27,8.54,13.83a51.74,51.74,0,0,1-1.24,27.51A39,39,0,0,1,237.38,296c-1.85,1.73-2.07,2.95-.78,5.15,3.26,5.59,6.65,8.23,14.31,9.57,0,.05,6.09,1.48,9.38,2.32C242.06,332.08,207.35,333.13,187.66,313.22Z"/><path class="cls-1" d="M392.16,300.15c-13,0-26.05,0-39,0H309.56c-5.56,0-9.5,3.31-9.81,8-.37,5.64,3.59,9.57,9.84,9.57,13.79.05,27.6,0,41.42,0h10.88c10.45,0,20.9.05,31.37-.07,6.78-.07,10.92-6.33,8.24-12.3C399.71,301.39,396.19,300.16,392.16,300.15Z"/><path class="cls-1" d="M392.78,266.08c-13.94,0-27.84,0-41.74,0h-5.58c-12,0-24.09-.05-36.15,0-4.92,0-9,3.61-9.4,8s2.74,8.4,7.6,9.37a27,27,0,0,0,5.32.25h56.05c8.06,0,16.12.07,24.18-.05,5.48-.08,9.33-3.45,9.57-8C402.89,270,399,266.11,392.78,266.08Z"/><path class="cls-1" d="M393.5,232.12q-21,0-42,0h-3.72c-12.84,0-25.69-.06-38.54,0-7.15.05-11.34,6.8-8.08,12.93,1.81,3.42,5,4.54,8.7,4.55h24.71c19.4,0,38.81.06,58.2,0a12.54,12.54,0,0,0,5.57-1.39,8.47,8.47,0,0,0,4.07-9.78C401.45,234.91,397.59,232.12,393.5,232.12Z"/><path class="cls-1" d="M283.38,70.87c-117.33,0-212.48,95-212.51,212.46s95,212.73,212.25,212.73c117.51,0,212.83-94.89,212.94-212A212.52,212.52,0,0,0,283.38,70.87Zm136.18,296a17.74,17.74,0,0,1-1.15,6v0c-2.12,6-6,10.4-12.36,11.56-5,.91-10.18.78-15.28.94-4.26.14-4.26,0-5.45-3.88-.21-.67-.54-1.3-.78-2-2.54-7.34-9.8-11.81-18-11.07a17,17,0,0,0-14.86,14.1c-.31,2.26-1.14,2.94-3.37,2.9-7.88-.12-15.76-.05-23.64-.05q-52.87,0-105.74,0c-2.13,0-3.47-.24-3.76-2.84a15.71,15.71,0,0,0-2-5.67c-3.66-6.57-10.91-9.7-18.61-8.23-6.48,1.25-12.31,7.44-13.17,14.36-.25,2-1,2.45-2.86,2.4-4.34-.12-8.69,0-13-.05a18.08,18.08,0,0,1-17.1-13,8.56,8.56,0,0,0-1.06-1.77V196.28c.6-1.35,1.17-2.7,1.81-4,3.58-7.39,9.65-10.78,17.7-10.79q57.76,0,115.53,0H400.33c7.94,0,13.91,3.49,17.43,10.78.63,1.3,1.2,2.65,1.8,4Z"/></svg>